<?xml version="1.0" encoding="UTF-8" standalone="no"?>
<svg
   xmlns:dc="http://purl.org/dc/elements/1.1/"
   xmlns:cc="http://creativecommons.org/ns#"
   xmlns:rdf="http://www.w3.org/1999/02/22-rdf-syntax-ns#"
   xmlns:svg="http://www.w3.org/2000/svg"
   xmlns="http://www.w3.org/2000/svg"
   xmlns:sodipodi="http://sodipodi.sourceforge.net/DTD/sodipodi-0.dtd"
   xmlns:inkscape="http://www.inkscape.org/namespaces/inkscape"
   version="1.1"
   id="svg3123"
   x="0px"
   y="0px"
   width="170px"
   height="169.994px"
   viewBox="0 0 170 169.994"
   enable-background="new 0 0 170 169.994"
   xml:space="preserve"
   inkscape:version="0.48.2 r9819"
   sodipodi:docname="aud-logo.svg"><metadata
   id="metadata46"><rdf:RDF><cc:Work
       rdf:about=""><dc:format>image/svg+xml</dc:format><dc:type
         rdf:resource="http://purl.org/dc/dcmitype/StillImage" /></cc:Work></rdf:RDF></metadata><sodipodi:namedview
   pagecolor="#ffffff"
   bordercolor="#666666"
   borderopacity="1"
   objecttolerance="10"
   gridtolerance="10"
   guidetolerance="10"
   inkscape:pageopacity="0"
   inkscape:pageshadow="2"
   inkscape:window-width="1472"
   inkscape:window-height="815"
   id="namedview44"
   showgrid="false"
   inkscape:zoom="1.4142136"
   inkscape:cx="67.666124"
   inkscape:cy="144.47006"
   inkscape:window-x="52"
   inkscape:window-y="22"
   inkscape:window-maximized="0"
   inkscape:current-layer="svg3123" />
  <defs
   id="defs3">
  <filter
   id="inset-shadow">
    
    <!-- Shadow Offset -->
    <feOffset
   dx="0"
   dy="0"
   id="feOffset6" />
    
    <!-- Shadow Blur -->
    <feGaussianBlur
   stdDeviation="10"
   result="offset-blur"
   id="feGaussianBlur8" />
    
    <!-- Invert the drop shadow
         to create an inner shadow -->
    <feComposite
   operator="out"
   in="SourceGraphic"
   in2="offset-blur"
   result="inverse"
   id="feComposite10" />
    
    <!-- Color & Opacity -->
    <feFlood
   flood-color="black"
   flood-opacity="1"
   result="color"
   id="feFlood12" />
    
    <!-- Clip color inside shadow -->
    <feComposite
   operator="in"
   in="color"
   in2="inverse"
   result="shadow"
   id="feComposite14" />
    
    <!-- Put shadow over original object -->
    <feComposite
   operator="over"
   in="shadow"
   in2="SourceGraphic"
   id="feComposite16" />
  </filter>

	
	
	
	
</defs>
<g
   id="g3125"
   transform="translate(84.698554,85.285221)"><g
     id="audlogo"><path
       d="m 82.155446,0.008779 c 0,0 -7.216,-7.229 -14.784,-14.82 -5.124,-5.137 -10.469,-6.871 -13.842,-7.447 2.078,-2.641 4.767,-7.447 4.791,-14.69 0.034,-10.746 0.07,-21 0.07,-21 0,0 -10.209,-0.013 -20.93,-0.026 -7.255,-0.011 -12.257,2.54 -15.049,4.518 -0.399,-3.334 -1.896,-8.637 -7.005,-13.782 -7.57,-7.621 -14.797,-14.899 -14.797,-14.899 0,0 -7.229,7.208 -14.82,14.78 -5.134,5.122 -6.868,10.46 -7.446,13.833 -2.641,-2.078 -7.449,-4.767 -14.695,-4.793 -10.747,-0.038 -21.005,-0.074 -21.005,-0.074 0,0 -0.009,10.209 -0.021,20.932 -0.011,7.254 2.54,12.256 4.518,15.053 -3.336,0.395 -8.641,1.89 -13.788,7.001 -7.625,7.571 -14.903,14.8 -14.903,14.8 0,0 7.214,7.229 14.786,14.82 5.128,5.139 10.473,6.875 13.848,7.446 -2.078,2.639 -4.772,7.451 -4.797,14.701 -0.038,10.75 -0.073,21.012 -0.073,21.012 0,0 10.211,0.013 20.93,0.023 7.254,0.011 12.257,-2.54 15.049,-4.518 0.399,3.336 1.898,8.639 7.005,13.782 7.572,7.623 14.797,14.902 14.797,14.902 0,0 7.231,-7.214 14.82,-14.786 5.137,-5.122 6.873,-10.471 7.447,-13.845 2.636,2.08 7.449,4.778 14.705,4.803 10.746,0.038 21.002,0.073 21.002,0.073 0,0 0.011,-10.215 0.024,-20.94 0.009,-7.263 -2.547,-12.265 -4.524,-15.059 3.336,-0.395 8.641,-1.894 13.784,-7.001 7.621,-7.572 14.903,-14.799 14.903,-14.799 z m -69.165,-12.792 m -12.55,-5.311 m -12.617,5.119"
       stroke-miterlimit="10"
       clip-rule="evenodd"
       style="fill:#23b687;fill-rule:evenodd;stroke:#000000;stroke-width:2.30739999;stroke-miterlimit:10;filter:url(#inset-shadow)"
       id="audlogo__shadowed"
       inkscape:connector-curvature="0" /><path
       d="m -0.011554,84.708779 -16.371,-16.482 c -4.072,-4.102 -6.056,-8.319 -6.99,-11.789 -3.219,1.69 -7.687,3.182 -13.447,3.182 h -0.04 l -23.161,-0.026 0.081,-23.237 c 0.021,-5.783 1.602,-10.168 3.394,-13.283 -3.483,-1.081 -7.711,-3.195 -11.794,-7.289 l -16.359,-16.397 16.486,-16.373 c 4.102,-4.072 8.321,-6.054 11.792,-6.988 -1.694,-3.227 -3.189,-7.711 -3.182,-13.485 l 0.024,-23.165 23.233,0.081 c 5.779,0.021 10.162,1.602 13.278,3.392 1.082,-3.475 3.197,-7.702 7.284,-11.779 l 16.397,-16.356 16.369,16.478 c 4.076,4.104 6.058,8.319 6.994,11.791 3.215,-1.693 7.685,-3.183 13.441,-3.183 l 23.203,0.03 -0.077,23.227 c -0.021,5.777 -1.6,10.16 -3.385,13.272 3.479,1.082 7.705,3.195 11.787,7.289 l 16.356,16.394 -16.484,16.373 c -4.098,4.072 -8.315,6.053 -11.787,6.994 1.7,3.225 3.193,7.709 3.187,13.489 l -0.03,23.169 -23.229,-0.081 c -5.783,-0.015 -10.172,-1.6 -13.287,-3.394 -1.082,3.481 -3.197,7.709 -7.287,11.789 l -16.396,16.357 z m -20.028,-35.81 0.442,3.714 c 0.373,3.138 1.783,7.856 6.371,12.478 l 13.229,13.321 13.24,-13.21 c 4.654,-4.639 6.282,-9.437 6.826,-12.647 l 0.629,-3.69 2.941,2.317 c 2.487,1.964 6.819,4.304 13.336,4.324 l 18.771,0.068 0.024,-18.711 c 0.009,-6.572 -2.235,-11.115 -4.113,-13.769 l -2.169,-3.055 3.718,-0.439 c 3.142,-0.373 7.858,-1.781 12.476,-6.371 l 13.325,-13.229 -13.21,-13.242 c -4.641,-4.652 -9.433,-6.279 -12.641,-6.823 l -3.682,-0.632 2.31,-2.939 c 1.954,-2.485 4.288,-6.813 4.311,-13.321 l 0.064,-18.771 -18.699,-0.023 c -6.589,0 -11.117,2.235 -13.762,4.112 l -3.054,2.163 -0.442,-3.72 c -0.371,-3.138 -1.779,-7.854 -6.371,-12.474 l -13.228,-13.32 -13.242,13.21 c -4.652,4.635 -6.278,9.428 -6.826,12.63 l -0.629,3.686 -2.937,-2.314 c -2.487,-1.956 -6.817,-4.292 -13.33,-4.315 l -18.771,-0.066 -0.023,18.704 c -0.006,6.568 2.233,11.109 4.113,13.764 l 2.161,3.052 -3.716,0.439 c -3.142,0.375 -7.858,1.783 -12.483,6.376 l -13.321,13.227 13.212,13.242 c 4.642,4.652 9.437,6.278 12.645,6.823 l 3.69,0.631 -2.317,2.941 c -1.958,2.487 -4.298,6.817 -4.319,13.331 l -0.066,18.784 18.701,0.017 c 6.587,0 11.119,-2.233 13.764,-4.112 l 3.052,-2.161 z"
       id="audlogo__outline"
       inkscape:connector-curvature="0"
       style="fill:#111717" /><g
       id="audlogo__petals"
       transform="translate(-84.698554,-85.285221)">
		<g
   id="audlogo__petals__outline">
			<path
   id="path24"
   d="m 88.978,35.782 c 0,0 2.325,-7.007 10.085,-11.311 7.022,-3.893 13.707,-7.6 13.707,-7.6 0,0 2.246,7.35 4.599,15.053 2.59,8.47 -0.896,14.891 -0.896,14.891 L 93.042,65.721 88.978,35.782 z"
   clip-rule="evenodd"
   inkscape:connector-curvature="0"
   style="fill:#3c8962;fill-rule:evenodd" />
			<path
   id="path26"
   d="m 80.971,134.248 c 0,0 -2.323,7.011 -10.083,11.314 -7.024,3.891 -13.716,7.596 -13.716,7.596 0,0 -2.248,-7.353 -4.601,-15.057 -2.592,-8.472 0.892,-14.899 0.892,-14.899 l 23.438,-18.901 4.07,29.947 z"
   clip-rule="evenodd"
   inkscape:connector-curvature="0"
   style="fill:#3c8962;fill-rule:evenodd" />
			<path
   id="path28"
   d="m 134.207,89.027 c 0,0 7.003,2.325 11.307,10.085 3.895,7.02 7.607,13.707 7.607,13.707 0,0 -7.357,2.244 -15.057,4.597 -8.473,2.591 -14.891,-0.892 -14.891,-0.892 l -18.909,-23.431 29.943,-4.066 z"
   clip-rule="evenodd"
   inkscape:connector-curvature="0"
   style="fill:#3c8962;fill-rule:evenodd" />
			<path
   id="path30"
   d="m 35.735,81.022 c 0,0 -7.007,-2.325 -11.311,-10.085 -3.891,-7.024 -7.6,-13.713 -7.6,-13.713 0,0 7.353,-2.248 15.057,-4.603 8.472,-2.591 14.893,0.894 14.893,0.894 L 65.681,76.95 35.735,81.022 z"
   clip-rule="evenodd"
   inkscape:connector-curvature="0"
   style="fill:#3c8962;fill-rule:evenodd" />
			<path
   id="path32"
   d="m 122.621,53.032 c 0,0 6.596,-3.311 15.128,-0.868 7.717,2.21 15.068,4.317 15.068,4.317 0,0 -3.611,6.787 -7.395,13.897 -4.159,7.822 -11.164,9.897 -11.164,9.897 l -29.937,-3.2 18.3,-24.043 z"
   clip-rule="evenodd"
   inkscape:connector-curvature="0"
   style="fill:#3c8962;fill-rule:evenodd" />
			<path
   id="path34"
   d="m 47.33,116.994 c 0,0 -6.598,3.31 -15.128,0.864 -7.72,-2.212 -15.07,-4.322 -15.07,-4.322 0,0 3.609,-6.787 7.389,-13.901 4.159,-7.82 11.162,-9.899 11.162,-9.899 l 29.942,3.206 -18.295,24.052 z"
   clip-rule="evenodd"
   inkscape:connector-curvature="0"
   style="fill:#3c8962;fill-rule:evenodd" />
			<path
   id="path36"
   d="m 116.947,122.659 c 0,0 3.312,6.602 0.864,15.132 -2.208,7.722 -4.313,15.07 -4.313,15.07 0,0 -6.79,-3.609 -13.899,-7.391 C 91.777,141.308 89.7,134.303 89.7,134.303 l 3.199,-29.939 24.048,18.295 z"
   clip-rule="evenodd"
   inkscape:connector-curvature="0"
   style="fill:#3c8962;fill-rule:evenodd" />
			<path
   id="path38"
   d="m 52.979,47.377 c 0,0 -3.311,-6.6 -0.864,-15.132 2.21,-7.715 4.322,-15.064 4.322,-15.064 0,0 6.789,3.609 13.899,7.389 7.824,4.157 9.902,11.162 9.902,11.162 L 77.033,65.67 52.979,47.377 z"
   clip-rule="evenodd"
   inkscape:connector-curvature="0"
   style="fill:#3c8962;fill-rule:evenodd" />
		</g>
		<path
   d="m 135.451,93.699 -20.917,2.673 V 95.544 L 156.64,85.022 114.534,74.498 v -1 l 20.814,1.935 c 0,0 5.271,-1.598 8.432,-7.408 2.875,-5.282 5.618,-10.328 5.618,-10.328 0,0 -5.51,-1.485 -11.297,-3.052 -6.399,-1.723 -11.371,0.781 -11.371,0.781 l -12.195,15.772 v -1.649 l 21.115,-35.185 -25.966,15.578 -2.18,-2.172 6.252,-5.185 c 0,0 2.602,-4.855 0.723,-11.199 -1.708,-5.77 -3.334,-11.279 -3.334,-11.279 0,0 -4.949,2.848 -10.149,5.832 -4.697,2.696 -6.719,6.719 -7.304,8.099 l -4.72,-4.693 -3.995,-15.962 -4.332,17.32 -5.539,5.42 0.141,-1.499 c 0,0 -1.597,-5.275 -7.412,-8.434 -5.284,-2.869 -10.33,-5.614 -10.33,-5.614 0,0 -1.489,5.512 -3.055,11.303 -1.728,6.395 0.776,11.369 0.776,11.369 l 7.035,5.437 -1.549,1.519 -26.409,-15.84 20.379,33.952 v 2.133 L 42.54,55.83 c 0,0 -4.857,-2.598 -11.199,-0.727 -5.768,1.702 -11.275,3.327 -11.275,3.327 0,0 2.848,4.949 5.836,10.145 3.304,5.738 8.59,7.483 8.59,7.483 l 20.189,-2.575 v 1.205 L 13.313,85.023 54.681,95.362 v 0.875 L 34.253,94.343 c 0,0 -5.271,1.596 -8.432,7.404 -2.877,5.281 -5.619,10.322 -5.619,10.322 0,0 5.51,1.483 11.297,3.044 6.395,1.726 11.371,-0.777 11.371,-0.777 L 54.681,99.07 v 2.658 l -8.825,14.701 -0.625,1.041 -10.928,18.214 18.214,-10.927 2.969,2.969 c -0.512,1.135 -2.188,5.475 -0.58,10.911 1.702,5.772 3.328,11.277 3.328,11.277 0,0 4.949,-2.845 10.147,-5.834 0.755,-0.433 1.44,-0.902 2.063,-1.389 l 9.336,-6.802 5.196,20.78 5.23,-20.91 9.387,7.15 c 0.591,0.439 1.242,0.86 1.958,1.25 5.284,2.875 10.33,5.616 10.33,5.616 0,0 1.487,-5.51 3.048,-11.301 1.293,-4.8 0.209,-8.797 -0.412,-10.495 l 3.108,-3.112 18.026,10.817 -21.115,-35.191 v -2.056 l 12.862,15.505 c 0,0 4.861,2.596 11.201,0.723 5.77,-1.706 11.277,-3.33 11.277,-3.33 0,0 -2.845,-4.951 -5.834,-10.145 -3.307,-5.746 -8.591,-7.491 -8.591,-7.491 z"
   clip-rule="evenodd"
   id="audlogo__petals__inner"
   inkscape:connector-curvature="0"
   style="fill:#2d6352;fill-rule:evenodd" />
	</g><g
       id="audlogo__a"
       transform="translate(-84.698554,-85.285221)">
		<path
   id="path42"
   d="m 84.846,124.481 -12.561,12.66 -20.932,-21.038 7.992,-7.992 V 59.015 l 26.264,-26.078 24.647,24.647 v 50.528 l 7.992,7.992 -20.84,20.848 -12.562,-12.471 z m -24.169,-8.946 4.091,-4.093 -4.283,-1.807 -5.898,5.9 h 6.09 z m 0.57,-7.611 4.281,1.809 V 62.629 l -4.281,-1.807 v 47.102 z M 61.914,59.107 66.197,60.916 84.75,42.55 V 36.46 L 61.914,59.107 z m 15.13,28.359 V 52.829 l -9.612,9.514 v 49.1 l -4.661,4.661 9.418,9.518 9.518,-9.518 -4.663,-4.661 V 97.647 h 15.511 v 13.796 l -4.663,4.661 9.421,9.518 9.516,-9.518 -4.663,-4.661 V 60.916 L 85.608,44.359 77.521,52.354 92.555,67.386 V 87.465 H 77.044 z m 6.375,27.687 v -5.326 l -3.805,1.615 3.805,3.711 z m 1.142,-33.875 -4.283,4.283 h 9.136 l -4.283,-4.283 h -0.57 z m 0.761,34.736 4.567,-4.571 -4.187,-1.902 -0.38,0.382 v 6.091 z m 1.049,-36.165 4.281,4.285 v -14.94 l -4.281,1.807 v 8.848 z m 4.281,29.884 v -8.852 l -4.281,3.805 v 3.142 l 4.281,1.905 z M 86.655,42.74 103.498,59.679 107.685,57.68 86.655,36.652 v 6.088 z m 18.078,68.703 3.81,3.711 h 6.087 l -5.802,-5.804 -4.095,2.093 z"
   inkscape:connector-curvature="0"
   style="fill:#ffffff" />
	</g></g></g>
</svg>