<?xml version="1.0" encoding="utf-8"?>
<!-- Generator: Adobe Illustrator 17.0.0, SVG Export Plug-In . SVG Version: 6.00 Build 0)  -->
<!DOCTYPE svg PUBLIC "-//W3C//DTD SVG 1.1//EN" "http://www.w3.org/Graphics/SVG/1.1/DTD/svg11.dtd">
<svg version="1.1" id="Layer_1" xmlns="http://www.w3.org/2000/svg" xmlns:xlink="http://www.w3.org/1999/xlink" x="0px" y="0px"
	 width="177.219px" height="39.263px" viewBox="0 0 177.219 39.263" enable-background="new 0 0 177.219 39.263"
	 xml:space="preserve">
<path fill="#FFFFFF" d="M4.321,0.648c-3.133,0-3.781,1.566-3.781,3.601v9.417c0,0.198,0.162,0.36,0.36,0.36h2.359
	c0.198,0,0.36-0.162,0.36-0.36V4.249c0-0.54,0-0.918,0.792-0.918h2.863c0.792,0,0.792,0.378,0.792,0.918v9.417
	c0,0.198,0.162,0.36,0.36,0.36h2.359c0.198,0,0.36-0.162,0.36-0.36V4.249c0-2.035-0.648-3.601-3.781-3.601H4.321z"/>
<path fill="#FFFFFF" d="M22.273,9.579V8.175c0-2.917-1.602-4.609-4.519-4.609c-1.386,0-2.809,0.216-3.835,0.468
	c-0.486,0.108-0.558,0.234-0.558,0.522v12.622c0,0.198,0.18,0.36,0.378,0.36h2.179c0.198,0,0.36-0.162,0.36-0.36v-3.115
	c0.522,0.072,1.116,0.126,1.476,0.126C20.796,14.188,22.273,12.406,22.273,9.579z M19.356,9.579c0,1.26-0.324,2.215-1.603,2.215
	c-0.432,0-1.044-0.054-1.476-0.108V6.068c0.342-0.054,0.882-0.09,1.476-0.09c1.278,0,1.603,0.918,1.603,2.197V9.579z"/>
<path fill="#FFFFFF" d="M33.093,9.507v-1.26c0-2.863-1.584-4.681-4.501-4.681s-4.519,1.819-4.519,4.681v1.26
	c0,2.863,1.603,4.681,4.519,4.681S33.093,12.37,33.093,9.507z M30.194,9.507c0,1.458-0.558,2.215-1.603,2.215
	s-1.62-0.756-1.62-2.215v-1.26c0-1.458,0.576-2.197,1.62-2.197s1.603,0.738,1.603,2.197V9.507z"/>
<path fill="#FFFFFF" d="M41.032,3.637c-0.486-0.054-0.99-0.072-1.476-0.072c-2.917,0-4.519,1.693-4.519,4.609v1.404
	c0,2.827,1.476,4.609,4.519,4.609c0.36,0,0.954-0.054,1.476-0.126v3.115c0,0.198,0.18,0.36,0.378,0.36h2.179
	c0.198,0,0.36-0.162,0.36-0.36v-3.115c0.522,0.072,1.116,0.126,1.476,0.126c3.043,0,4.519-1.782,4.519-4.609V8.175
	c0-2.917-1.603-4.609-4.519-4.609c-0.504,0-0.99,0.036-1.476,0.072V0.846c0-0.198-0.162-0.36-0.36-0.36H41.41
	c-0.198,0-0.378,0.162-0.378,0.36V3.637z M41.032,11.686c-0.432,0.054-1.044,0.108-1.476,0.108c-1.278,0-1.602-0.954-1.602-2.215
	V8.175c0-1.278,0.324-2.197,1.602-2.197c0.594,0,1.134,0.036,1.476,0.09V11.686z M47.028,9.579c0,1.26-0.324,2.215-1.603,2.215
	c-0.432,0-1.044-0.054-1.476-0.108V6.068c0.342-0.054,0.882-0.09,1.476-0.09c1.278,0,1.603,0.918,1.603,2.197V9.579z"/>
<path fill="#FFFFFF" d="M60.093,9.345V8.301c0-2.719-1.494-4.735-4.447-4.735c-2.863,0-4.555,1.837-4.555,4.735v1.26
	c0,3.475,2.341,4.627,4.519,4.627c1.567,0,2.539-0.144,3.691-0.432c0.306-0.072,0.378-0.198,0.378-0.486v-1.368
	c0-0.198-0.144-0.288-0.342-0.288c-0.018,0-0.036,0-0.054,0c-0.72,0.072-2.323,0.162-3.457,0.162c-1.422,0-1.855-0.936-1.855-1.963
	V9.777h5.744C59.949,9.777,60.093,9.615,60.093,9.345z M57.248,7.977h-3.277V7.905c0-1.314,0.666-1.999,1.657-1.999
	c1.008,0,1.62,0.666,1.62,1.999V7.977z"/>
<path fill="#FFFFFF" d="M69.058,13.504v-1.602c0-0.18-0.162-0.306-0.342-0.306c0,0-0.018,0-0.036,0
	c-0.666,0.072-1.17,0.126-2.197,0.126c-0.81,0-1.476-0.486-1.476-2.089V8.121c0-1.602,0.666-2.089,1.476-2.089
	c1.026,0,1.53,0.054,2.197,0.126c0.018,0,0.036,0,0.036,0c0.18,0,0.342-0.126,0.342-0.306V4.249c0-0.27-0.108-0.342-0.378-0.414
	c-0.504-0.126-1.314-0.27-2.395-0.27c-2.539,0-4.195,1.621-4.195,4.555v1.512c0,2.935,1.657,4.555,4.195,4.555
	c1.08,0,1.891-0.144,2.395-0.27C68.95,13.846,69.058,13.774,69.058,13.504z"/>
<path fill="#FFFFFF" d="M77.058,13.504v-1.602c0-0.18-0.162-0.306-0.342-0.306c0,0-0.018,0-0.036,0
	c-0.666,0.072-1.17,0.126-2.197,0.126c-0.81,0-1.476-0.486-1.476-2.089V8.121c0-1.602,0.666-2.089,1.476-2.089
	c1.026,0,1.53,0.054,2.197,0.126c0.018,0,0.036,0,0.036,0c0.18,0,0.342-0.126,0.342-0.306V4.249c0-0.27-0.108-0.342-0.378-0.414
	c-0.504-0.126-1.314-0.27-2.395-0.27c-2.539,0-4.195,1.621-4.195,4.555v1.512c0,2.935,1.656,4.555,4.195,4.555
	c1.08,0,1.891-0.144,2.395-0.27C76.95,13.846,77.058,13.774,77.058,13.504z"/>
<path fill="#FFFFFF" d="M81.683,14.026c0.306,0,0.522-0.054,0.756-0.432l2.881-4.573c0.054-0.09,0.09-0.108,0.144-0.108
	c0.036,0,0.072,0.036,0.072,0.108v4.627c0,0.198,0.162,0.378,0.36,0.378h1.945c0.198,0,0.378-0.18,0.378-0.378V4.069
	c0-0.198-0.162-0.36-0.36-0.36H85.86c-0.288,0-0.432,0.144-0.612,0.432l-3.007,4.825c-0.054,0.09-0.09,0.108-0.126,0.108
	c-0.054,0-0.072-0.036-0.072-0.126V4.087c0-0.27-0.18-0.378-0.378-0.378H79.72c-0.198,0-0.36,0.108-0.36,0.378v9.561
	c0,0.288,0.18,0.378,0.378,0.378H81.683z"/>
<path fill="#FFFFFF" d="M99.093,9.507v-1.26c0-2.863-1.584-4.681-4.501-4.681s-4.519,1.819-4.519,4.681v1.26
	c0,2.863,1.603,4.681,4.519,4.681S99.093,12.37,99.093,9.507z M96.194,9.507c0,1.458-0.558,2.215-1.603,2.215
	c-1.044,0-1.62-0.756-1.62-2.215v-1.26c0-1.458,0.576-2.197,1.62-2.197c1.044,0,1.603,0.738,1.603,2.197V9.507z"/>
<path fill="#FFFFFF" d="M110.291,4.087c0-0.288-0.162-0.378-0.36-0.378h-2.143c-0.198,0-0.378,0.09-0.378,0.378v3.367h-3.151V4.087
	c0-0.288-0.162-0.378-0.36-0.378h-2.161c-0.198,0-0.378,0.09-0.378,0.378v9.561c0,0.27,0.18,0.378,0.378,0.378h2.161
	c0.198,0,0.36-0.108,0.36-0.378V9.885h3.151v3.763c0,0.27,0.18,0.378,0.378,0.378h2.143c0.198,0,0.36-0.108,0.36-0.378V4.087z"/>
<path fill="#FFFFFF" d="M120.318,13.666V7.238c0-2.629-1.62-3.673-4.213-3.673c-1.188,0-2.449,0.216-3.115,0.378
	c-0.216,0.054-0.342,0.198-0.342,0.396v1.458c0,0.234,0.144,0.324,0.324,0.324h0.09c0.558-0.054,1.837-0.126,2.989-0.126
	c0.846,0,1.35,0.216,1.35,1.242v0.648h-0.972c-3.079,0-4.429,0.936-4.429,3.043v0.162c0,2.341,1.512,3.097,3.079,3.097
	c1.08,0,1.801-0.306,2.503-0.81v0.288c0,0.198,0.162,0.36,0.36,0.36h2.017C120.156,14.026,120.318,13.864,120.318,13.666z
	 M117.456,11.596c-0.432,0.216-0.936,0.396-1.476,0.396c-0.756,0-1.134-0.144-1.134-0.9v-0.162c0-0.882,0.324-1.314,1.584-1.314
	h1.026V11.596z"/>
<path fill="#FFFFFF" d="M128.248,13.63c0.036,0.216,0.234,0.396,0.486,0.396h2.017c0.27,0,0.468-0.18,0.468-0.414v-0.09
	l-2.179-8.354c-0.378-1.422-1.512-1.656-2.593-1.656c-1.044,0-2.269,0.288-2.611,1.656l-2.143,8.318
	c0,0.054-0.018,0.108-0.018,0.126c0,0.234,0.198,0.414,0.45,0.414h2.017c0.252,0,0.468-0.18,0.504-0.396l1.711-7.49
	c0.036-0.144,0.108-0.144,0.144,0L128.248,13.63z"/>
<path fill="#FFFFFF" d="M140.769,10.533c0-2.881-2.143-3.475-4.753-3.475c-0.252,0-0.504,0-0.756,0.018V4.087
	c0-0.288-0.162-0.378-0.36-0.378h-2.161c-0.198,0-0.378,0.09-0.378,0.378v9.075c0,0.468,0.054,0.666,0.468,0.738
	c1.062,0.18,2.215,0.252,3.187,0.252c2.611,0,4.753-0.576,4.753-3.475V10.533z M136.015,9.219c1.512,0,1.927,0.45,1.927,1.314v0.144
	c0,0.864-0.432,1.242-1.927,1.242c-0.522,0-0.63-0.018-0.756-0.018V9.237C135.385,9.237,135.817,9.219,136.015,9.219z"/>
<path fill="#FFFFFF" d="M151.291,4.087c0-0.288-0.162-0.378-0.36-0.378h-2.143c-0.198,0-0.378,0.09-0.378,0.378v3.367h-3.151V4.087
	c0-0.288-0.162-0.378-0.36-0.378h-2.161c-0.198,0-0.378,0.09-0.378,0.378v9.561c0,0.27,0.18,0.378,0.378,0.378h2.161
	c0.198,0,0.36-0.108,0.36-0.378V9.885h3.151v3.763c0,0.27,0.18,0.378,0.378,0.378h2.143c0.198,0,0.36-0.108,0.36-0.378V4.087z"/>
<path fill="#FFFFFF" d="M165.946,13.666V4.069c0-0.198-0.162-0.36-0.36-0.36h-2.179c-0.198,0-0.36,0.162-0.36,0.36v9.597
	c0,0.198,0.162,0.36,0.36,0.36h2.179C165.784,14.026,165.946,13.864,165.946,13.666z M161.769,10.533
	c0-2.881-2.143-3.475-4.753-3.475c-0.252,0-0.504,0-0.756,0.018V4.087c0-0.288-0.162-0.378-0.36-0.378h-2.161
	c-0.198,0-0.378,0.09-0.378,0.378v9.075c0,0.468,0.054,0.666,0.468,0.738c1.062,0.18,2.215,0.252,3.187,0.252
	c2.611,0,4.753-0.576,4.753-3.475V10.533z M157.015,9.219c1.512,0,1.927,0.45,1.927,1.314v0.144c0,0.864-0.432,1.242-1.927,1.242
	c-0.522,0-0.63-0.018-0.756-0.018V9.237C156.385,9.237,156.817,9.219,157.015,9.219z"/>
<path fill="#FFFFFF" d="M174.32,0c-0.18,0-0.198,0.072-0.234,0.216c-0.198,0.756-0.702,1.026-1.368,1.026
	c-0.666,0-1.17-0.27-1.368-1.026C171.313,0.072,171.259,0,171.115,0h-1.566c-0.144,0-0.198,0.072-0.162,0.198
	c0.324,1.422,1.386,2.611,3.331,2.611c1.945,0,3.007-1.188,3.331-2.611C176.084,0.072,176.012,0,175.886,0H174.32z M168.738,14.026
	c-0.198,0-0.378-0.09-0.378-0.378V4.087c0-0.27,0.162-0.378,0.36-0.378h1.945c0.198,0,0.378,0.108,0.378,0.378v4.861
	c0,0.09,0.018,0.126,0.072,0.126c0.036,0,0.072-0.018,0.126-0.108l3.007-4.825c0.18-0.288,0.324-0.432,0.612-0.432h1.999
	c0.198,0,0.36,0.162,0.36,0.36v9.579c0,0.198-0.18,0.378-0.378,0.378h-1.945c-0.198,0-0.36-0.18-0.36-0.378V9.021
	c0-0.072-0.036-0.108-0.072-0.108c-0.054,0-0.09,0.018-0.144,0.108l-2.881,4.573c-0.234,0.378-0.45,0.432-0.756,0.432H168.738z"/>
<path fill="#FFFFFF" d="M8.318,35.266v-6.428c0-2.629-1.621-3.673-4.213-3.673c-1.188,0-2.449,0.216-3.115,0.378
	c-0.216,0.054-0.342,0.198-0.342,0.396v1.458c0,0.234,0.144,0.324,0.324,0.324h0.09c0.558-0.054,1.837-0.126,2.989-0.126
	c0.846,0,1.35,0.216,1.35,1.242v0.648H4.429C1.35,29.487,0,30.423,0,32.529v0.162c0,2.341,1.512,3.097,3.079,3.097
	c1.08,0,1.801-0.306,2.503-0.81v0.288c0,0.198,0.162,0.36,0.36,0.36h2.017C8.156,35.626,8.318,35.464,8.318,35.266z M5.456,33.196
	c-0.432,0.216-0.936,0.396-1.476,0.396c-0.756,0-1.134-0.144-1.134-0.9v-0.162c0-0.882,0.324-1.314,1.584-1.314h1.026V33.196z"/>
<path fill="#FFFFFF" d="M16.806,25.309c-0.198,0-0.342,0.162-0.378,0.342l-1.674,7.112c0,0-0.018,0-0.072,0
	c-0.018,0-0.036,0-0.072,0h-0.018c-0.108,0-0.162-0.09-0.216-0.342l-1.621-6.77c-0.036-0.18-0.162-0.342-0.342-0.342h-2.395
	c-0.252,0-0.36,0.108-0.36,0.288c0,0.036,0,0.072,0.018,0.126l2.377,8.102c0.45,1.566,1.008,1.674,1.675,1.674h0.27l-0.162,0.558
	c-0.216,0.72-0.54,0.936-1.188,0.936c-0.594,0-1.656-0.108-2.251-0.144c-0.018,0-0.018,0-0.036,0c-0.198,0-0.36,0.144-0.36,0.342
	v1.458c0,0.198,0.18,0.252,0.378,0.324c0.45,0.144,1.512,0.288,2.179,0.288c2.647,0,3.385-0.99,3.943-2.935l3.025-10.605
	c0.072-0.252-0.036-0.414-0.324-0.414H16.806z"/>
<path fill="#FFFFFF" d="M27.94,37.445c0,0.198,0.162,0.36,0.36,0.36h2.071c0.198,0,0.36-0.162,0.36-0.36v-3.907
	c0-0.198-0.162-0.36-0.36-0.36h-0.918l-1.674-6.41c-0.378-1.423-1.512-1.656-2.593-1.656c-1.044,0-2.269,0.288-2.611,1.656
	l-1.656,6.41H20c-0.198,0-0.36,0.162-0.36,0.36v3.907c0,0.198,0.162,0.36,0.36,0.36h2.071c0.198,0,0.36-0.162,0.36-0.36v-1.819h5.51
	V37.445z M25.095,27.74c0.018-0.072,0.036-0.108,0.072-0.108c0.036,0,0.054,0.036,0.072,0.108l1.26,5.438h-2.647L25.095,27.74z"/>
<path fill="#FFFFFF" d="M34.683,35.626c0.306,0,0.522-0.054,0.756-0.432l2.881-4.573c0.054-0.09,0.09-0.108,0.144-0.108
	c0.036,0,0.072,0.036,0.072,0.108v4.627c0,0.198,0.162,0.378,0.36,0.378h1.945c0.198,0,0.378-0.18,0.378-0.378v-9.579
	c0-0.198-0.162-0.36-0.36-0.36H38.86c-0.288,0-0.432,0.144-0.612,0.432l-3.007,4.825c-0.054,0.09-0.09,0.108-0.126,0.108
	c-0.054,0-0.072-0.036-0.072-0.126v-4.861c0-0.27-0.18-0.378-0.378-0.378H32.72c-0.198,0-0.36,0.108-0.36,0.378v9.561
	c0,0.288,0.18,0.378,0.378,0.378H34.683z"/>
<path fill="#FFFFFF" d="M50.418,27.614c0.27,0,0.378-0.162,0.378-0.36v-1.567c0-0.198-0.108-0.378-0.378-0.378h-7.4
	c-0.27,0-0.378,0.18-0.378,0.378v1.567c0,0.198,0.108,0.36,0.378,0.36h2.251v7.634c0,0.27,0.162,0.378,0.36,0.378h2.179
	c0.198,0,0.378-0.108,0.378-0.378v-7.634H50.418z"/>
<path fill="#FFFFFF" d="M60.093,31.107v-1.26c0-2.863-1.584-4.681-4.501-4.681c-2.917,0-4.519,1.818-4.519,4.681v1.26
	c0,2.863,1.603,4.681,4.519,4.681C58.508,35.788,60.093,33.97,60.093,31.107z M57.194,31.107c0,1.458-0.558,2.215-1.603,2.215
	s-1.62-0.756-1.62-2.215v-1.26c0-1.458,0.576-2.197,1.62-2.197s1.603,0.738,1.603,2.197V31.107z"/>
<path fill="#FFFFFF" d="M71.273,31.179v-1.404c0-2.917-1.603-4.609-4.519-4.609c-1.386,0-2.809,0.216-3.835,0.468
	c-0.486,0.108-0.558,0.234-0.558,0.522v12.622c0,0.198,0.18,0.36,0.378,0.36h2.179c0.198,0,0.36-0.162,0.36-0.36v-3.115
	c0.522,0.072,1.116,0.126,1.476,0.126C69.796,35.788,71.273,34.006,71.273,31.179z M68.356,31.179c0,1.26-0.324,2.215-1.603,2.215
	c-0.432,0-1.044-0.054-1.476-0.108v-5.618c0.342-0.054,0.882-0.09,1.476-0.09c1.278,0,1.603,0.918,1.603,2.197V31.179z"/>
<path fill="#FFFFFF" d="M80.058,35.104v-1.602c0-0.18-0.162-0.306-0.342-0.306c0,0-0.018,0-0.036,0
	c-0.666,0.072-1.17,0.126-2.197,0.126c-0.81,0-1.476-0.486-1.476-2.089v-1.512c0-1.602,0.666-2.089,1.476-2.089
	c1.026,0,1.53,0.054,2.197,0.126c0.018,0,0.036,0,0.036,0c0.18,0,0.342-0.126,0.342-0.306v-1.603c0-0.27-0.108-0.342-0.378-0.414
	c-0.504-0.126-1.314-0.27-2.395-0.27c-2.539,0-4.195,1.62-4.195,4.555v1.512c0,2.935,1.656,4.555,4.195,4.555
	c1.08,0,1.891-0.144,2.395-0.27C79.95,35.446,80.058,35.374,80.058,35.104z"/>
<path fill="#FFFFFF" d="M91.327,25.507c0-0.108-0.108-0.198-0.27-0.198h-2.575c-0.144,0-0.324,0.054-0.468,0.27l-2.737,4.123v-4.033
	c0-0.198-0.162-0.36-0.36-0.36h-2.179c-0.198,0-0.378,0.162-0.378,0.36v9.579c0,0.198,0.18,0.378,0.378,0.378h2.179
	c0.198,0,0.36-0.18,0.36-0.378v-4.105l2.593,4.231c0.144,0.216,0.252,0.252,0.45,0.252h2.719c0.144,0,0.234-0.108,0.234-0.234
	c0-0.054,0-0.108-0.036-0.144l-3.331-5.006l3.349-4.555C91.309,25.615,91.327,25.561,91.327,25.507z"/>
<path fill="#FFFFFF" d="M94.683,35.626c0.306,0,0.522-0.054,0.756-0.432l2.881-4.573c0.054-0.09,0.09-0.108,0.144-0.108
	c0.036,0,0.072,0.036,0.072,0.108v4.627c0,0.198,0.162,0.378,0.36,0.378h1.945c0.198,0,0.378-0.18,0.378-0.378v-9.579
	c0-0.198-0.162-0.36-0.36-0.36H98.86c-0.288,0-0.432,0.144-0.612,0.432l-3.007,4.825c-0.054,0.09-0.09,0.108-0.126,0.108
	c-0.054,0-0.072-0.036-0.072-0.126v-4.861c0-0.27-0.18-0.378-0.378-0.378H92.72c-0.198,0-0.36,0.108-0.36,0.378v9.561
	c0,0.288,0.18,0.378,0.378,0.378H94.683z"/>
<path fill="#FFFFFF" d="M109.32,21.6c-0.18,0-0.198,0.072-0.234,0.216c-0.198,0.756-0.702,1.026-1.368,1.026s-1.17-0.27-1.368-1.026
	c-0.036-0.144-0.09-0.216-0.234-0.216h-1.566c-0.144,0-0.198,0.072-0.162,0.198c0.324,1.422,1.386,2.611,3.331,2.611
	c1.945,0,3.007-1.188,3.331-2.611c0.036-0.126-0.036-0.198-0.162-0.198H109.32z M103.738,35.626c-0.198,0-0.378-0.09-0.378-0.378
	v-9.561c0-0.27,0.162-0.378,0.36-0.378h1.945c0.198,0,0.378,0.108,0.378,0.378v4.861c0,0.09,0.018,0.126,0.072,0.126
	c0.036,0,0.072-0.018,0.126-0.108l3.007-4.825c0.18-0.288,0.324-0.432,0.612-0.432h1.999c0.198,0,0.36,0.162,0.36,0.36v9.579
	c0,0.198-0.18,0.378-0.378,0.378h-1.945c-0.198,0-0.36-0.18-0.36-0.378v-4.627c0-0.072-0.036-0.108-0.072-0.108
	c-0.054,0-0.09,0.018-0.144,0.108l-2.881,4.573c-0.234,0.378-0.45,0.432-0.756,0.432H103.738z"/>
<path fill="#FFFFFF" d="M126.418,35.626v1.819c0,0.198,0.162,0.36,0.36,0.36h2.179c0.198,0,0.36-0.162,0.36-0.36v-3.889
	c0-0.198-0.162-0.36-0.36-0.36h-0.828c0.072-0.36,0.09-0.756,0.09-1.17v-6.356c0-0.198-0.162-0.36-0.36-0.36h-2.197
	c-0.198,0-0.36,0.162-0.36,0.36v6.608c0,0.54,0,0.918-0.792,0.918h-1.44c-0.792,0-0.792-0.378-0.792-0.918v-6.608
	c0-0.198-0.162-0.36-0.36-0.36h-2.197c-0.198,0-0.36,0.162-0.36,0.36v6.356c0,2.035,0.648,3.601,3.781,3.601H126.418z"/>
<path fill="#FFFFFF" d="M139.093,30.945v-1.044c0-2.719-1.494-4.735-4.447-4.735c-2.863,0-4.555,1.837-4.555,4.735v1.26
	c0,3.475,2.341,4.627,4.519,4.627c1.566,0,2.539-0.144,3.691-0.432c0.306-0.072,0.378-0.198,0.378-0.486v-1.368
	c0-0.198-0.144-0.288-0.342-0.288c-0.018,0-0.036,0-0.054,0c-0.72,0.072-2.323,0.162-3.457,0.162c-1.423,0-1.855-0.936-1.855-1.963
	v-0.036h5.744C138.949,31.377,139.093,31.215,139.093,30.945z M136.248,29.577h-3.277v-0.072c0-1.314,0.666-1.999,1.656-1.999
	c1.008,0,1.62,0.666,1.62,1.999V29.577z"/>
<path fill="#FFFFFF" d="M150.291,25.687c0-0.288-0.162-0.378-0.36-0.378h-2.143c-0.198,0-0.378,0.09-0.378,0.378v3.367h-3.151
	v-3.367c0-0.288-0.162-0.378-0.36-0.378h-2.161c-0.198,0-0.378,0.09-0.378,0.378v9.561c0,0.27,0.18,0.378,0.378,0.378h2.161
	c0.198,0,0.36-0.108,0.36-0.378v-3.763h3.151v3.763c0,0.27,0.18,0.378,0.378,0.378h2.143c0.198,0,0.36-0.108,0.36-0.378V25.687z"/>
<path fill="#FFFFFF" d="M159.418,27.614c0.27,0,0.378-0.162,0.378-0.36v-1.567c0-0.198-0.108-0.378-0.378-0.378h-7.4
	c-0.27,0-0.378,0.18-0.378,0.378v1.567c0,0.198,0.108,0.36,0.378,0.36h2.251v7.634c0,0.27,0.162,0.378,0.36,0.378h2.179
	c0.198,0,0.378-0.108,0.378-0.378v-7.634H159.418z"/>
<path fill="#FFFFFF" d="M170.273,31.179v-1.404c0-2.917-1.602-4.609-4.519-4.609c-1.386,0-2.809,0.216-3.835,0.468
	c-0.486,0.108-0.558,0.234-0.558,0.522v12.622c0,0.198,0.18,0.36,0.378,0.36h2.179c0.198,0,0.36-0.162,0.36-0.36v-3.115
	c0.522,0.072,1.116,0.126,1.476,0.126C168.796,35.788,170.273,34.006,170.273,31.179z M167.356,31.179
	c0,1.26-0.324,2.215-1.602,2.215c-0.432,0-1.044-0.054-1.476-0.108v-5.618c0.342-0.054,0.882-0.09,1.476-0.09
	c1.278,0,1.602,0.918,1.602,2.197V31.179z"/>
</svg>
