<?xml version="1.0" encoding="utf-8"?>
<!-- Generator: Adobe Illustrator 17.0.0, SVG Export Plug-In . SVG Version: 6.00 Build 0)  -->
<!DOCTYPE svg PUBLIC "-//W3C//DTD SVG 1.1//EN" "http://www.w3.org/Graphics/SVG/1.1/DTD/svg11.dtd">
<svg version="1.1" id="Layer_1" xmlns="http://www.w3.org/2000/svg" xmlns:xlink="http://www.w3.org/1999/xlink" x="0px" y="0px"
	 width="297px" height="333.85px" viewBox="0 0 297 333.85" enable-background="new 0 0 297 333.85" xml:space="preserve">
<g>
	<linearGradient id="SVGID_1_" gradientUnits="userSpaceOnUse" x1="233.0001" y1="145.5001" x2="297" y2="145.5001">
		<stop  offset="0" style="stop-color:#41C4DF"/>
		<stop  offset="1" style="stop-color:#92D4DD"/>
	</linearGradient>
	<path fill-rule="evenodd" clip-rule="evenodd" fill="url(#SVGID_1_)" d="M238,125l59,37l-10,4l-54-29L238,125z"/>
	<linearGradient id="SVGID_2_" gradientUnits="userSpaceOnUse" x1="37.5" y1="230.5001" x2="191" y2="77.0001">
		<stop  offset="0" style="stop-color:#B19A53"/>
		<stop  offset="1" style="stop-color:#A5D3CD"/>
	</linearGradient>
	<path fill-rule="evenodd" clip-rule="evenodd" fill="url(#SVGID_2_)" d="M1,163l238-38l-5,13L38,231L1,163z"/>
	<linearGradient id="SVGID_3_" gradientUnits="userSpaceOnUse" x1="239" y1="83.0001" x2="297" y2="83.0001">
		<stop  offset="0" style="stop-color:#A4D5A3"/>
		<stop  offset="1" style="stop-color:#A4D5A3"/>
	</linearGradient>
	<path fill-rule="evenodd" clip-rule="evenodd" fill="url(#SVGID_3_)" d="M287,166L239,0l5,1l53,161L287,166z"/>
	<linearGradient id="SVGID_4_" gradientUnits="userSpaceOnUse" x1="108.0001" y1="248.3505" x2="4.861522e-08" y2="248.3505">
		<stop  offset="0" style="stop-color:#C1E1BD"/>
		<stop  offset="1" style="stop-color:#9ED2A0"/>
	</linearGradient>
	<path fill-rule="evenodd" clip-rule="evenodd" fill="url(#SVGID_4_)" d="M99,217.85l-99-55l37,69l71,102L99,217.85z"/>
</g>
</svg>
