<?xml version="1.0" encoding="utf-8"?>
<!-- Generator: Adobe Illustrator 17.0.0, SVG Export Plug-In . SVG Version: 6.00 Build 0)  -->
<!DOCTYPE svg PUBLIC "-//W3C//DTD SVG 1.1//EN" "http://www.w3.org/Graphics/SVG/1.1/DTD/svg11.dtd">
<svg version="1.1" id="Layer_1" xmlns="http://www.w3.org/2000/svg" xmlns:xlink="http://www.w3.org/1999/xlink" x="0px" y="0px"
	 width="1365px" height="926px" viewBox="0 0 1365 926" enable-background="new 0 0 1365 926" xml:space="preserve">
<g>
	<path fill-rule="evenodd" clip-rule="evenodd" fill="#25848A" d="M859,747l79-43l-13-13l-86,26L859,747z"/>
	<path fill-rule="evenodd" clip-rule="evenodd" fill="#29909F" d="M1240,715l-70,142l39.333,17.94L1247,718L1240,715z"/>
	<linearGradient id="SVGID_1_" gradientUnits="userSpaceOnUse" x1="1281.0002" y1="706.4998" x2="1365.0002" y2="706.4998">
		<stop  offset="0" style="stop-color:#0D6F8B"/>
		<stop  offset="1" style="stop-color:#13B0C8"/>
	</linearGradient>
	<path fill-rule="evenodd" clip-rule="evenodd" fill="url(#SVGID_1_)" d="M1362,758l3-28l-67-72l-17-3L1362,758z"/>
	<path fill-rule="evenodd" clip-rule="evenodd" fill="#37999F" d="M889,481l-50,237l20,29l41-67L889,481z"/>
	<path fill-rule="evenodd" clip-rule="evenodd" fill="#76C8AC" d="M140,766l-59,22l62-34L140,766z"/>
	<path fill-rule="evenodd" clip-rule="evenodd" fill="#468E82" d="M154,708l-14,58l10-10l24-55L154,708z"/>
	<path fill-rule="evenodd" clip-rule="evenodd" fill="#13B0C8" d="M24,716l14-8l96,12.5l-0.833,11.833L24,716z"/>
	<path fill-rule="evenodd" clip-rule="evenodd" fill="#96D0A1" d="M94,644l-66,53l-5,20l53-27L94,644z"/>
	<linearGradient id="SVGID_2_" gradientUnits="userSpaceOnUse" x1="154.5003" y1="732.9999" x2="154.5003" y2="457.9998">
		<stop  offset="0" style="stop-color:#60BBBA"/>
		<stop  offset="1" style="stop-color:#8CCC93"/>
	</linearGradient>
	<path fill-rule="evenodd" clip-rule="evenodd" fill="url(#SVGID_2_)" d="M133,733l43-55l-8-220l-35,262V733z"/>
	<path fill-rule="evenodd" clip-rule="evenodd" fill="#40B879" d="M7,802l24,5c0,0,54-20,51-20C79,787,7,802,7,802z"/>
	<linearGradient id="SVGID_3_" gradientUnits="userSpaceOnUse" x1="1.761195e-04" y1="863.4999" x2="175.0002" y2="863.4999">
		<stop  offset="0" style="stop-color:#79C79B"/>
		<stop  offset="1" style="stop-color:#ACDBCB"/>
	</linearGradient>
	<path fill-rule="evenodd" clip-rule="evenodd" fill="url(#SVGID_3_)" d="M175,926L0,831l7-30l140,24L175,926z"/>
	<linearGradient id="SVGID_4_" gradientUnits="userSpaceOnUse" x1="147.0004" y1="875.4998" x2="1132.5002" y2="875.4998">
		<stop  offset="0" style="stop-color:#DEF0EA"/>
		<stop  offset="1" style="stop-color:#D3EBE3"/>
	</linearGradient>
	<path fill-rule="evenodd" clip-rule="evenodd" fill="url(#SVGID_4_)" d="M1110,827l-963-2l28,101l957.5-25L1110,827z"/>
	<linearGradient id="SVGID_5_" gradientUnits="userSpaceOnUse" x1="1209.0004" y1="863.1362" x2="1108.3032" y2="863.1362">
		<stop  offset="0" style="stop-color:#9381BC"/>
		<stop  offset="1" style="stop-color:#DBCBE4"/>
	</linearGradient>
	<path fill-rule="evenodd" clip-rule="evenodd" fill="url(#SVGID_5_)" d="M1209,874l-76.864,25.515l-23.833-72.758L1209,874z"/>
	<path fill-rule="evenodd" clip-rule="evenodd" fill="#40B879" d="M1280,655l-40,60l6,3l49-62L1280,655z"/>
	<linearGradient id="SVGID_6_" gradientUnits="userSpaceOnUse" x1="1027.0002" y1="754.8331" x2="1288.0002" y2="754.8331">
		<stop  offset="0" style="stop-color:#5FC3B1"/>
		<stop  offset="1" style="stop-color:#76C8AC"/>
	</linearGradient>
	<path fill-rule="evenodd" clip-rule="evenodd" fill="url(#SVGID_6_)" d="M1030,663.667L1288,763l-24,83l-237-147L1030,663.667z"/>
	<path fill-rule="evenodd" clip-rule="evenodd" fill="#96D0A1" d="M1011,627l15,71l1.333,1l7.667-75l-36-40L1011,627z"/>
	<path fill-rule="evenodd" clip-rule="evenodd" fill="#5F9E43" d="M877.5,557.5L1014,627l-15-43l-121.5-89.5V557.5z"/>
	<path fill-rule="evenodd" clip-rule="evenodd" fill="#40B879" d="M870.667,418.333L867,480l11,79l2-140.5L870.667,418.333z"/>
	<path fill-rule="evenodd" clip-rule="evenodd" fill="#96D0A1" d="M905.334,355.333L871,419l9.333,0.333l66-40L905.334,355.333z"/>
	<linearGradient id="SVGID_7_" gradientUnits="userSpaceOnUse" x1="1275.5002" y1="457.9998" x2="1275.5002" y2="138.9999">
		<stop  offset="0" style="stop-color:#71C59A"/>
		<stop  offset="0.1" style="stop-color:#59AE9F"/>
	</linearGradient>
	<path fill-rule="evenodd" clip-rule="evenodd" fill="url(#SVGID_7_)" d="M1210,163l13,291l45,4l73-319L1210,163z"/>
	<linearGradient id="SVGID_8_" gradientUnits="userSpaceOnUse" x1="1341.0001" y1="81.4999" x2="1001.0004" y2="81.4999">
		<stop  offset="0" style="stop-color:#A4D2B1"/>
		<stop  offset="1" style="stop-color:#59AE9F"/>
	</linearGradient>
	<path fill-rule="evenodd" clip-rule="evenodd" fill="url(#SVGID_8_)" d="M1001,13l17-13l323,140l-130.5,23L1001,13z"/>
	<linearGradient id="SVGID_9_" gradientUnits="userSpaceOnUse" x1="1267.4852" y1="476.3332" x2="1025.0002" y2="476.3332">
		<stop  offset="0" style="stop-color:#8DC555"/>
		<stop  offset="1" style="stop-color:#5F9E43"/>
	</linearGradient>
	<path fill-rule="evenodd" clip-rule="evenodd" fill="url(#SVGID_9_)" d="M1267.485,458.333l-52,70l-171.182-70.909L1025,424.333
		L1267.485,458.333z"/>
	<linearGradient id="SVGID_10_" gradientUnits="userSpaceOnUse" x1="905.0003" y1="400.4998" x2="1065.0002" y2="400.4998">
		<stop  offset="0.7094" style="stop-color:#59AE9F"/>
		<stop  offset="1" style="stop-color:#83C994"/>
	</linearGradient>
	<path fill-rule="evenodd" clip-rule="evenodd" fill="url(#SVGID_10_)" d="M1063.667,445L905,356l72,4l88,74.667L1063.667,445z"/>
	<linearGradient id="SVGID_11_" gradientUnits="userSpaceOnUse" x1="1262.0002" y1="793.4998" x2="1362.0001" y2="793.4998">
		<stop  offset="0" style="stop-color:#53A8AF"/>
		<stop  offset="1" style="stop-color:#2F8779"/>
	</linearGradient>
	<path fill-rule="evenodd" clip-rule="evenodd" fill="url(#SVGID_11_)" d="M1288,763l63-22l11,17l-100,88L1288,763z"/>
	<path fill-rule="evenodd" clip-rule="evenodd" fill="#40B879" d="M76,691l78.667,16.667l21-6L95,643L76,691z"/>
	<linearGradient id="SVGID_12_" gradientUnits="userSpaceOnUse" x1="881.5004" y1="699.4999" x2="657.0004" y2="474.9999">
		<stop  offset="0" style="stop-color:#60B7C0"/>
		<stop  offset="1" style="stop-color:#70C38A"/>
	</linearGradient>
	<path fill-rule="evenodd" clip-rule="evenodd" fill="url(#SVGID_12_)" d="M665,467l225,14l11,199l-244,22L665,467z"/>
	<linearGradient id="SVGID_13_" gradientUnits="userSpaceOnUse" x1="643.0004" y1="595.4999" x2="666.0002" y2="595.4999">
		<stop  offset="0" style="stop-color:#6AC17E"/>
		<stop  offset="1" style="stop-color:#57BD81"/>
	</linearGradient>
	<path fill-rule="evenodd" clip-rule="evenodd" fill="url(#SVGID_13_)" d="M655,451l11,16l-8,235l-15,38L655,451z"/>
	<linearGradient id="SVGID_14_" gradientUnits="userSpaceOnUse" x1="532.5004" y1="753.9999" x2="532.5004" y2="434.9998">
		<stop  offset="0" style="stop-color:#41B878"/>
		<stop  offset="1" style="stop-color:#8CCC93"/>
	</linearGradient>
	<path fill-rule="evenodd" clip-rule="evenodd" fill="url(#SVGID_14_)" d="M425,435l231,16l-12,290l-235,13L425,435z"/>
	<path fill-rule="evenodd" clip-rule="evenodd" fill="#96D0A1" d="M406,449l20-14l-17,318l-13-61L406,449z"/>
	<linearGradient id="SVGID_15_" gradientUnits="userSpaceOnUse" x1="287.0003" y1="691.9999" x2="287.0003" y2="448.9998">
		<stop  offset="0" style="stop-color:#76BB43"/>
		<stop  offset="1" style="stop-color:#A1CF61"/>
	</linearGradient>
	<path fill-rule="evenodd" clip-rule="evenodd" fill="url(#SVGID_15_)" d="M167,458l240-9l-10,243l-222-14L167,458z"/>
</g>
</svg>
